<?xml version="1.0" encoding="UTF-8" standalone="no"?>
<svg
   xmlns:dc="http://purl.org/dc/elements/1.1/"
   xmlns:cc="http://creativecommons.org/ns#"
   xmlns:rdf="http://www.w3.org/1999/02/22-rdf-syntax-ns#"
   xmlns:svg="http://www.w3.org/2000/svg"
   xmlns="http://www.w3.org/2000/svg"
   xmlns:sodipodi="http://sodipodi.sourceforge.net/DTD/sodipodi-0.dtd"
   xmlns:inkscape="http://www.inkscape.org/namespaces/inkscape"
   enable-background="new 0 0 30 30"
   height="30px"
   id="Layer_1"
   version="1.1"
   viewBox="0 0 30 30"
   width="30px"
   xml:space="preserve"
   sodipodi:docname="powerpoint.svg"
   inkscape:version="0.92.1 r15371"><metadata
     id="metadata13"><rdf:RDF><cc:Work
         rdf:about=""><dc:format>image/svg+xml</dc:format><dc:type
           rdf:resource="http://purl.org/dc/dcmitype/StillImage" /></cc:Work></rdf:RDF></metadata><defs
     id="defs11" /><sodipodi:namedview
     pagecolor="#ffffff"
     bordercolor="#666666"
     borderopacity="1"
     objecttolerance="10"
     gridtolerance="10"
     guidetolerance="10"
     inkscape:pageopacity="0"
     inkscape:pageshadow="2"
     inkscape:window-width="982"
     inkscape:window-height="480"
     id="namedview9"
     showgrid="false"
     inkscape:zoom="7.8666667"
     inkscape:cx="15"
     inkscape:cy="15"
     inkscape:window-x="0"
     inkscape:window-y="0"
     inkscape:window-maximized="0"
     inkscape:current-layer="g6" /><g
     id="g6"><polyline
       clip-rule="evenodd"
       fill="#DD5B26"
       fill-rule="evenodd"
       points="30.103,28.75 0,28.75 0,0 30.103,0 30.103,28.75  "
       id="polyline2"
       style="fill:#31b7d6" /><path
       d="M17.364,12.962c0-0.536-0.164-0.968-0.494-1.287c-0.332-0.322-0.896-0.482-1.69-0.482h-1.328v3.589h1.318   c0.854,0,1.441-0.178,1.76-0.529C17.221,13.935,17.364,13.505,17.364,12.962 M20.88,12.926c0,1.185-0.3,2.165-0.896,2.941   c-0.772,1.005-2.057,1.508-3.854,1.508h-2.279v4.585h-3.514V8.6h5.733c1.628,0,2.865,0.453,3.714,1.356   C20.515,10.73,20.88,11.72,20.88,12.926z"
       fill="#FFFFFF"
       id="path4" /></g></svg>